<svg width="76" height="76" viewBox="0 0 76 76" fill="none" xmlns="http://www.w3.org/2000/svg">
<rect width="76" height="76" fill="#FEA803"/>
<path d="M43.3332 23.9165H31.6665C26.8409 23.9165 22.9165 27.8409 22.9165 32.6665V51.6248C22.9165 52.0116 23.0701 52.3825 23.3436 52.656C23.6171 52.9295 23.9881 53.0832 24.3748 53.0832H43.3332C48.1588 53.0832 52.0832 49.1588 52.0832 44.3332V32.6665C52.0832 27.8409 48.1588 23.9165 43.3332 23.9165ZM49.1665 44.3332C49.1665 47.5503 46.5503 50.1665 43.3332 50.1665H25.8332V32.6665C25.8332 29.4494 28.4494 26.8332 31.6665 26.8332H43.3332C46.5503 26.8332 49.1665 29.4494 49.1665 32.6665V44.3332Z" fill="white"/>
<path d="M38.9585 31.2085H36.0418V37.0418H30.2085V39.9585H36.0418V45.7918H38.9585V39.9585H44.7918V37.0418H38.9585V31.2085Z" fill="white"/>
</svg>
