<svg width="49" height="49" viewBox="0 0 49 49" fill="none" xmlns="http://www.w3.org/2000/svg">
<circle cx="24.5" cy="24.5" r="24.5" fill="#FEA803"/>
<path d="M32.9898 30.2053C32.9469 29.9399 32.7805 29.713 32.5313 29.5782L28.8452 27.4058L28.8148 27.3888C28.6603 27.3114 28.4896 27.2717 28.3167 27.273C28.0079 27.273 27.713 27.3901 27.5083 27.5953L26.4203 28.6841C26.3738 28.7284 26.222 28.7924 26.176 28.7947C26.1634 28.7937 24.9101 28.7034 22.6028 26.3952C20.2995 24.0918 20.2018 22.8342 20.201 22.8342C20.2023 22.7699 20.2656 22.6187 20.3106 22.5719L21.2383 21.6441C21.5652 21.3164 21.6631 20.7732 21.4693 20.3524L19.4203 16.4959C19.2715 16.1893 18.9822 16 18.6613 16C18.4342 16 18.2151 16.0941 18.0439 16.2652L15.5148 18.7893C15.2724 19.0305 15.0636 19.4524 15.018 19.7919C14.9959 19.9542 14.5472 23.8284 19.8572 29.1407C24.3652 33.6494 27.8804 33.9998 28.8511 33.9998C28.9693 34.0013 29.0875 33.9952 29.2049 33.9815C29.5433 33.9362 29.9645 33.7279 30.2055 33.4864L32.7324 30.959C32.9386 30.7516 33.0328 30.4777 32.9898 30.2053Z" fill="white"/>
</svg>
