<svg width="49" height="49" viewBox="0 0 49 49" fill="none" xmlns="http://www.w3.org/2000/svg">
<circle cx="24.5" cy="24.5" r="24.5" fill="#FEA803"/>
<path d="M24.9375 15.75C26.91 15.75 28.8018 16.5402 30.1966 17.9467C31.5914 19.3532 32.375 21.2609 32.375 23.2501C32.375 26.8338 29.9764 30.1326 25.2697 33.1526C25.1704 33.2162 25.0552 33.25 24.9375 33.25C24.8198 33.25 24.7046 33.2162 24.6053 33.1526C19.8986 30.1326 17.5 26.8338 17.5 23.2501C17.5 21.2609 18.2836 19.3532 19.6784 17.9467C21.0732 16.5402 22.965 15.75 24.9375 15.75ZM24.9375 20.75C24.28 20.75 23.6494 21.0134 23.1845 21.4823C22.7195 21.9511 22.4583 22.587 22.4583 23.2501C22.4583 23.9131 22.7195 24.549 23.1845 25.0178C23.6494 25.4867 24.28 25.7501 24.9375 25.7501C25.595 25.7501 26.2256 25.4867 26.6905 25.0178C27.1555 24.549 27.4167 23.9131 27.4167 23.2501C27.4167 22.587 27.1555 21.9511 26.6905 21.4823C26.2256 21.0134 25.595 20.75 24.9375 20.75Z" fill="white"/>
</svg>
