<svg width="49" height="49" viewBox="0 0 49 49" fill="none" xmlns="http://www.w3.org/2000/svg">
<circle cx="24.5" cy="24.5" r="24.5" fill="#FEA803"/>
<path d="M14 20.8393L24.1697 26.0725C24.2717 26.125 24.385 26.1524 24.5 26.1524C24.615 26.1524 24.7283 26.125 24.8303 26.0725L35 20.8403V29.9306C35.0001 30.7146 34.6969 31.4689 34.1527 32.0388C33.6085 32.6087 32.8645 32.9509 32.0734 32.9953L31.8977 33H17.1023C16.3099 33.0001 15.5475 32.7001 14.9715 32.1616C14.3955 31.6232 14.0496 30.8871 14.0048 30.1043L14 29.9306V20.8393ZM17.1023 16H31.8977C32.6901 15.9999 33.4525 16.2999 34.0285 16.8384C34.6045 17.3768 34.9504 18.1129 34.9952 18.8957L35 19.0694V19.2432L24.5 24.6454L14 19.2432V19.0694C13.9999 18.2854 14.3031 17.5311 14.8473 16.9612C15.3915 16.3913 16.1355 16.0491 16.9266 16.0047L17.1023 16H31.8977H17.1023Z" fill="white"/>
</svg>
